<mxfile host="app.diagrams.net" modified="2021-10-22T09:51:09.283Z" agent="5.0 (Windows NT 10.0; Win64; x64) AppleWebKit/537.36 (KHTML, like Gecko) Chrome/94.0.4606.81 Safari/537.36" etag="y36re9G90CbT7KyNHmW2" version="15.5.8" type="github">
  <diagram name="Page-1" id="9c096ad6-e400-ecc8-3e38-643d2caac077">
    <mxGraphModel dx="1422" dy="770" grid="1" gridSize="10" guides="1" tooltips="1" connect="1" arrows="1" fold="1" page="1" pageScale="1.5" pageWidth="1169" pageHeight="826" background="none" math="0" shadow="0">
      <root>
        <mxCell id="0" style=";html=1;" />
        <mxCell id="1" style=";html=1;" parent="0" />
        <mxCell id="bup325hLgWFX2GKf3MlM-1" value="«interface»&lt;br&gt;&lt;b&gt;EventExecutorGroup&lt;/b&gt;" style="html=1;" parent="1" vertex="1">
          <mxGeometry x="260" y="200" width="160" height="50" as="geometry" />
        </mxCell>
        <mxCell id="bup325hLgWFX2GKf3MlM-3" value="AbstractEventExecutorGroup" style="swimlane;fontStyle=0;childLayout=stackLayout;horizontal=1;startSize=26;fillColor=none;horizontalStack=0;resizeParent=1;resizeParentMax=0;resizeLast=0;collapsible=1;marginBottom=0;" parent="1" vertex="1" collapsed="1">
          <mxGeometry x="245" y="300" width="190" height="26" as="geometry">
            <mxRectangle x="255" y="300" width="170" height="52" as="alternateBounds" />
          </mxGeometry>
        </mxCell>
        <mxCell id="bup325hLgWFX2GKf3MlM-8" value="MultithreadEventExecutorGroup" style="swimlane;fontStyle=1;align=center;verticalAlign=top;childLayout=stackLayout;horizontal=1;startSize=26;horizontalStack=0;resizeParent=1;resizeParentMax=0;resizeLast=0;collapsible=1;marginBottom=0;" parent="1" vertex="1">
          <mxGeometry x="210" y="380" width="260" height="244" as="geometry" />
        </mxCell>
        <mxCell id="bup325hLgWFX2GKf3MlM-35" value="+ children: EventExecutor[] //多路复用事件集合" style="text;strokeColor=none;fillColor=none;align=left;verticalAlign=top;spacingLeft=4;spacingRight=4;overflow=hidden;rotatable=0;points=[[0,0.5],[1,0.5]];portConstraint=eastwest;" parent="bup325hLgWFX2GKf3MlM-8" vertex="1">
          <mxGeometry y="26" width="260" height="26" as="geometry" />
        </mxCell>
        <mxCell id="bup325hLgWFX2GKf3MlM-28" value="+ readonlyChildren: Set&lt;EventExecutor&gt;&#xa;        //只读的多路复用事件集合" style="text;strokeColor=none;fillColor=none;align=left;verticalAlign=top;spacingLeft=4;spacingRight=4;overflow=hidden;rotatable=0;points=[[0,0.5],[1,0.5]];portConstraint=eastwest;" parent="bup325hLgWFX2GKf3MlM-8" vertex="1">
          <mxGeometry y="52" width="260" height="38" as="geometry" />
        </mxCell>
        <mxCell id="bup325hLgWFX2GKf3MlM-32" value="+ terminatedChildren: AtomicInteger" style="text;strokeColor=none;fillColor=none;align=left;verticalAlign=top;spacingLeft=4;spacingRight=4;overflow=hidden;rotatable=0;points=[[0,0.5],[1,0.5]];portConstraint=eastwest;" parent="bup325hLgWFX2GKf3MlM-8" vertex="1">
          <mxGeometry y="90" width="260" height="26" as="geometry" />
        </mxCell>
        <mxCell id="bup325hLgWFX2GKf3MlM-31" value="+ terminationFuture: Promise&lt;?&gt;" style="text;strokeColor=none;fillColor=none;align=left;verticalAlign=top;spacingLeft=4;spacingRight=4;overflow=hidden;rotatable=0;points=[[0,0.5],[1,0.5]];portConstraint=eastwest;" parent="bup325hLgWFX2GKf3MlM-8" vertex="1">
          <mxGeometry y="116" width="260" height="26" as="geometry" />
        </mxCell>
        <mxCell id="bup325hLgWFX2GKf3MlM-13" value="+ chooser: EventExecutorChooserFactory.&#xa;        EventExecutorChooser&#xa;        //从多路复用事件集合中&#xa;        选择出下个事件的选择器" style="text;strokeColor=none;fillColor=none;align=left;verticalAlign=top;spacingLeft=4;spacingRight=4;overflow=hidden;rotatable=0;points=[[0,0.5],[1,0.5]];portConstraint=eastwest;" parent="bup325hLgWFX2GKf3MlM-8" vertex="1">
          <mxGeometry y="142" width="260" height="68" as="geometry" />
        </mxCell>
        <mxCell id="bup325hLgWFX2GKf3MlM-10" value="" style="line;strokeWidth=1;fillColor=none;align=left;verticalAlign=middle;spacingTop=-1;spacingLeft=3;spacingRight=3;rotatable=0;labelPosition=right;points=[];portConstraint=eastwest;" parent="bup325hLgWFX2GKf3MlM-8" vertex="1">
          <mxGeometry y="210" width="260" height="8" as="geometry" />
        </mxCell>
        <mxCell id="bup325hLgWFX2GKf3MlM-11" value="+ next(): EventExecutor  //获取下个执行器" style="text;strokeColor=none;fillColor=none;align=left;verticalAlign=top;spacingLeft=4;spacingRight=4;overflow=hidden;rotatable=0;points=[[0,0.5],[1,0.5]];portConstraint=eastwest;" parent="bup325hLgWFX2GKf3MlM-8" vertex="1">
          <mxGeometry y="218" width="260" height="26" as="geometry" />
        </mxCell>
        <mxCell id="bup325hLgWFX2GKf3MlM-37" value="多路复用事件组" style="text;html=1;align=center;verticalAlign=middle;resizable=0;points=[];autosize=1;strokeColor=none;fillColor=none;" parent="1" vertex="1">
          <mxGeometry x="290" y="160" width="100" height="20" as="geometry" />
        </mxCell>
        <mxCell id="bup325hLgWFX2GKf3MlM-48" style="edgeStyle=orthogonalEdgeStyle;rounded=0;orthogonalLoop=1;jettySize=auto;html=1;exitX=0.5;exitY=0;exitDx=0;exitDy=0;entryX=0.5;entryY=1;entryDx=0;entryDy=0;entryPerimeter=0;endFill=0;endArrow=block;endSize=16;" parent="1" source="bup325hLgWFX2GKf3MlM-38" target="bup325hLgWFX2GKf3MlM-11" edge="1">
          <mxGeometry relative="1" as="geometry" />
        </mxCell>
        <mxCell id="bup325hLgWFX2GKf3MlM-38" value="MultithreadEventLoopGroup" style="swimlane;fontStyle=1;align=center;verticalAlign=top;childLayout=stackLayout;horizontal=1;startSize=26;horizontalStack=0;resizeParent=1;resizeParentMax=0;resizeLast=0;collapsible=1;marginBottom=0;fillColor=none;gradientColor=none;" parent="1" vertex="1" collapsed="1">
          <mxGeometry x="240" y="680" width="200" height="26" as="geometry">
            <mxRectangle x="230" y="670" width="220" height="34" as="alternateBounds" />
          </mxGeometry>
        </mxCell>
        <mxCell id="bup325hLgWFX2GKf3MlM-44" value="" style="endArrow=block;dashed=1;endFill=0;endSize=12;html=1;rounded=0;exitX=0.5;exitY=0;exitDx=0;exitDy=0;entryX=0.5;entryY=1;entryDx=0;entryDy=0;" parent="1" source="bup325hLgWFX2GKf3MlM-3" target="bup325hLgWFX2GKf3MlM-1" edge="1">
          <mxGeometry width="160" relative="1" as="geometry">
            <mxPoint x="540" y="470" as="sourcePoint" />
            <mxPoint x="700" y="470" as="targetPoint" />
          </mxGeometry>
        </mxCell>
        <mxCell id="bup325hLgWFX2GKf3MlM-46" value="Extends" style="endArrow=block;endSize=16;endFill=0;html=1;rounded=0;exitX=0.5;exitY=0;exitDx=0;exitDy=0;entryX=0.5;entryY=1;entryDx=0;entryDy=0;" parent="1" source="bup325hLgWFX2GKf3MlM-8" target="bup325hLgWFX2GKf3MlM-3" edge="1">
          <mxGeometry width="160" relative="1" as="geometry">
            <mxPoint x="580" y="520" as="sourcePoint" />
            <mxPoint x="740" y="520" as="targetPoint" />
          </mxGeometry>
        </mxCell>
        <mxCell id="bup325hLgWFX2GKf3MlM-49" value="Classname" style="swimlane;fontStyle=1;align=center;verticalAlign=top;childLayout=stackLayout;horizontal=1;startSize=26;horizontalStack=0;resizeParent=1;resizeParentMax=0;resizeLast=0;collapsible=1;marginBottom=0;fillColor=none;gradientColor=none;" parent="1" vertex="1">
          <mxGeometry x="60" y="220" width="160" height="86" as="geometry" />
        </mxCell>
        <mxCell id="bup325hLgWFX2GKf3MlM-50" value="+ field: type" style="text;strokeColor=none;fillColor=none;align=left;verticalAlign=top;spacingLeft=4;spacingRight=4;overflow=hidden;rotatable=0;points=[[0,0.5],[1,0.5]];portConstraint=eastwest;" parent="bup325hLgWFX2GKf3MlM-49" vertex="1">
          <mxGeometry y="26" width="160" height="26" as="geometry" />
        </mxCell>
        <mxCell id="bup325hLgWFX2GKf3MlM-51" value="" style="line;strokeWidth=1;fillColor=none;align=left;verticalAlign=middle;spacingTop=-1;spacingLeft=3;spacingRight=3;rotatable=0;labelPosition=right;points=[];portConstraint=eastwest;" parent="bup325hLgWFX2GKf3MlM-49" vertex="1">
          <mxGeometry y="52" width="160" height="8" as="geometry" />
        </mxCell>
        <mxCell id="bup325hLgWFX2GKf3MlM-52" value="+ method(type): type" style="text;strokeColor=none;fillColor=none;align=left;verticalAlign=top;spacingLeft=4;spacingRight=4;overflow=hidden;rotatable=0;points=[[0,0.5],[1,0.5]];portConstraint=eastwest;" parent="bup325hLgWFX2GKf3MlM-49" vertex="1">
          <mxGeometry y="60" width="160" height="26" as="geometry" />
        </mxCell>
      </root>
    </mxGraphModel>
  </diagram>
</mxfile>
